Regular.ufo
<glyph name="a-GurungKhema" format="2">
  <advance width="1243"/>
  <unicode hex="16100"/>
  <outline>
    <contour>
      <point x="1245" y="923" type="line"/>
      <point x="1245" y="1029" type="line"/>
      <point x="0" y="1029" type="line"/>
      <point x="0" y="923" type="line"/>
      <point x="1032" y="923" type="line"/>
      <point x="1032" y="492" type="line"/>
      <point x="772" y="843"/>
      <point x="537" y="848" type="qcurve"/>
      <point x="448" y="850"/>
      <point x="373" y="809" type="qcurve"/>
      <point x="338" y="790"/>
      <point x="328" y="768" type="qcurve"/>
      <point x="381" y="700" type="line"/>
      <point x="461" y="745"/>
      <point x="530" y="745" type="qcurve"/>
      <point x="588" y="745"/>
      <point x="639" y="716" type="qcurve"/>
      <point x="694" y="685"/>
      <point x="739" y="587"/>
      <point x="743" y="506" type="qcurve"/>
      <point x="747" y="416"/>
      <point x="706" y="339" type="qcurve"/>
      <point x="662" y="255"/>
      <point x="582" y="225" type="qcurve"/>
      <point x="535" y="207"/>
      <point x="492" y="207" type="qcurve"/>
      <point x="430" y="207"/>
      <point x="342" y="266" type="qcurve"/>
      <point x="323" y="279"/>
      <point x="287" y="319" type="qcurve"/>
      <point x="232" y="380"/>
      <point x="203" y="442" type="qcurve"/>
      <point x="200" y="447"/>
      <point x="123" y="678" type="qcurve"/>
      <point x="16" y="631" type="line"/>
      <point x="83" y="438"/>
      <point x="98" y="406" type="qcurve"/>
      <point x="140" y="316"/>
      <point x="227" y="217" type="qcurve"/>
      <point x="278" y="159"/>
      <point x="360" y="125" type="qcurve"/>
      <point x="428" y="106"/>
      <point x="498" y="98" type="qcurve"/>
      <point x="573" y="90"/>
      <point x="633" y="123" type="qcurve"/>
      <point x="666" y="137"/>
      <point x="702" y="158" type="qcurve"/>
      <point x="725" y="171"/>
      <point x="772" y="236" type="qcurve"/>
      <point x="844" y="334"/>
      <point x="844" y="479" type="qcurve"/>
      <point x="844" y="516"/>
      <point x="840" y="573" type="qcurve"/>
      <point x="946" y="487"/>
      <point x="1001" y="270" type="qcurve"/>
      <point x="1044" y="101"/>
      <point x="1040" y="-2" type="qcurve"/>
      <point x="1141" y="-2" type="line"/>
      <point x="1141" y="923" type="line"/>
    </contour>
  </outline>
</glyph>
<glyph name="ka-GurungKhema" format="2">
  <advance width="1225"/>
  <unicode hex="16101"/>
  <outline>
    <contour>
      <point x="551" y="262" type="line"/>
      <point x="551" y="119"/>
      <point x="401" y="119" type="qcurve"/>
      <point x="303" y="119"/>
      <point x="170" y="245"/>
      <point x="170" y="342" type="qcurve"/>
      <point x="170" y="520"/>
      <point x="354" y="565" type="qcurve"/>
      <point x="430" y="584"/>
      <point x="551" y="575" type="qcurve"/>
    </contour>
    <contour>
      <point x="1003" y="225"/>
      <point x="1003" y="134" type="qcurve"/>
      <point x="1003" y="56"/>
      <point x="1000" y="-2" type="qcurve"/>
      <point x="1120" y="-2" type="line"/>
      <point x="1123" y="64"/>
      <point x="1127" y="196" type="qcurve"/>
      <point x="1133" y="448"/>
      <point x="1018" y="563" type="qcurve"/>
      <point x="885" y="696"/>
      <point x="666" y="694" type="qcurve"/>
      <point x="666" y="921" type="line"/>
      <point x="1225" y="921" type="line"/>
      <point x="1225" y="1034" type="line"/>
      <point x="0" y="1034" type="line"/>
      <point x="0" y="921" type="line"/>
      <point x="555" y="921" type="line"/>
      <point x="555" y="694" type="line"/>
      <point x="362" y="690"/>
      <point x="358" y="688" type="qcurve"/>
      <point x="224" y="670"/>
      <point x="136" y="578" type="qcurve"/>
      <point x="45" y="484"/>
      <point x="45" y="350" type="qcurve"/>
      <point x="45" y="195"/>
      <point x="242" y="0"/>
      <point x="397" y="0" type="qcurve"/>
      <point x="513" y="0"/>
      <point x="588" y="61" type="qcurve"/>
      <point x="670" y="127"/>
      <point x="670" y="240" type="qcurve"/>
      <point x="670" y="569" type="line"/>
      <point x="805" y="561" type="line"/>
      <point x="840" y="553"/>
      <point x="920" y="496" type="qcurve"/>
      <point x="983" y="426"/>
      <point x="995" y="340" type="qcurve"/>
      <point x="999" y="342" type="line"/>
    </contour>
  </outline>
</glyph>
<glyph name="kha-GurungKhema" format="2">
  <advance width="1485"/>
  <unicode hex="16102"/>
  <outline>
    <contour>
      <point x="553" y="575" type="line"/>
      <point x="518" y="578"/>
      <point x="485" y="578" type="qcurve"/>
      <point x="213" y="578"/>
      <point x="176" y="391" type="qcurve"/>
      <point x="172" y="371"/>
      <point x="172" y="342" type="qcurve"/>
      <point x="172" y="245"/>
      <point x="305" y="119"/>
      <point x="403" y="119" type="qcurve"/>
      <point x="553" y="119"/>
      <point x="553" y="262" type="qcurve"/>
    </contour>
    <contour>
      <point x="983" y="428"/>
      <point x="922" y="496" type="qcurve"/>
      <point x="831" y="551"/>
      <point x="805" y="557" type="qcurve"/>
      <point x="788" y="561"/>
      <point x="672" y="569" type="qcurve"/>
      <point x="672" y="240" type="line"/>
      <point x="672" y="125"/>
      <point x="591" y="60" type="qcurve"/>
      <point x="517" y="0"/>
      <point x="399" y="0" type="qcurve"/>
      <point x="244" y="0"/>
      <point x="47" y="195"/>
      <point x="47" y="350" type="qcurve"/>
      <point x="47" y="484"/>
      <point x="136" y="577" type="qcurve"/>
      <point x="221" y="667"/>
      <point x="356" y="688" type="qcurve"/>
      <point x="369" y="690"/>
      <point x="557" y="694" type="qcurve"/>
      <point x="557" y="922" type="line"/>
      <point x="2" y="922" type="line"/>
      <point x="2" y="1024" type="line"/>
      <point x="1487" y="1024" type="line"/>
      <point x="1487" y="922" type="line"/>
      <point x="668" y="922" type="line"/>
      <point x="668" y="694" type="line"/>
      <point x="886" y="696"/>
      <point x="1020" y="563" type="qcurve"/>
      <point x="1111" y="472"/>
      <point x="1128" y="298" type="qcurve"/>
      <point x="1131" y="266"/>
      <point x="1128" y="0" type="qcurve"/>
      <point x="1010" y="0" type="line"/>
      <point x="1010" y="23"/>
      <point x="1001" y="342" type="qcurve"/>
      <point x="997" y="340" type="line"/>
    </contour>
    <contour>
      <point x="1393" y="985" type="line"/>
      <point x="1393" y="0" type="line"/>
      <point x="1282" y="0" type="line"/>
      <point x="1282" y="987" type="line"/>
    </contour>
  </outline>
</glyph>
<glyph name="ga-GurungKhema" format="2">
  <advance width="1225"/>
  <unicode hex="16103"/>
  <outline>
    <contour>
      <point x="266" y="829" type="line"/>
      <point x="373" y="858"/>
      <point x="459" y="858" type="qcurve"/>
      <point x="586" y="858"/>
      <point x="669" y="797" type="qcurve"/>
      <point x="762" y="728"/>
      <point x="762" y="606" type="qcurve"/>
      <point x="762" y="469"/>
      <point x="694" y="385" type="qcurve"/>
      <point x="995" y="160" type="line"/>
      <point x="995" y="920" type="line"/>
      <point x="266" y="920" type="line"/>
    </contour>
    <contour>
      <point x="498" y="403"/>
      <point x="447" y="430" type="qcurve"/>
      <point x="389" y="461"/>
      <point x="356" y="461" type="qcurve"/>
      <point x="228" y="461"/>
      <point x="238" y="397" type="qcurve"/>
      <point x="244" y="355"/>
      <point x="292" y="330" type="qcurve"/>
      <point x="332" y="309"/>
      <point x="379" y="309" type="qcurve"/>
      <point x="467" y="309"/>
      <point x="528" y="375" type="qcurve"/>
    </contour>
    <contour>
      <point x="1225" y="1024" type="line"/>
      <point x="1225" y="920" type="line"/>
      <point x="1108" y="920" type="line"/>
      <point x="1108" y="0" type="line"/>
      <point x="1014" y="0" type="line"/>
      <point x="616" y="297" type="line"/>
      <point x="510" y="205"/>
      <point x="410" y="197" type="qcurve"/>
      <point x="330" y="190"/>
      <point x="252" y="223" type="qcurve"/>
      <point x="198" y="245"/>
      <point x="174" y="270" type="qcurve"/>
      <point x="109" y="336"/>
      <point x="109" y="403" type="qcurve"/>
      <point x="109" y="491"/>
      <point x="193" y="537" type="qcurve"/>
      <point x="258" y="573"/>
      <point x="354" y="573" type="qcurve"/>
      <point x="419" y="573"/>
      <point x="475" y="545" type="qcurve"/>
      <point x="514" y="526"/>
      <point x="594" y="467" type="qcurve"/>
      <point x="641" y="518"/>
      <point x="641" y="571" type="qcurve"/>
      <point x="641" y="584"/>
      <point x="625" y="670" type="qcurve"/>
      <point x="560" y="740"/>
      <point x="469" y="754" type="qcurve"/>
      <point x="394" y="765"/>
      <point x="199" y="693"/>
      <point x="143" y="637" type="qcurve"/>
      <point x="143" y="920" type="line"/>
      <point x="2" y="920" type="line"/>
      <point x="2" y="1024" type="line"/>
    </contour>
  </outline>
</glyph>
<glyph name="nga-GurungKhema" format="2">
  <advance width="1249"/>
  <unicode hex="16105"/>
  <outline>
    <contour>
      <point x="1044" y="135" type="line"/>
      <point x="1116" y="229" type="line"/>
      <point x="1243" y="229" type="line"/>
      <point x="1106" y="0" type="line"/>
      <point x="1018" y="-2" type="line"/>
      <point x="750" y="270" type="line"/>
      <point x="710" y="235"/>
      <point x="614" y="213" type="qcurve"/>
      <point x="544" y="197"/>
      <point x="518" y="199" type="qcurve"/>
      <point x="356" y="211"/>
      <point x="270" y="295" type="qcurve"/>
      <point x="240" y="324"/>
      <point x="240" y="377" type="qcurve"/>
      <point x="240" y="555"/>
      <point x="498" y="555" type="qcurve"/>
      <point x="647" y="555"/>
      <point x="752" y="438" type="qcurve"/>
      <point x="827" y="518"/>
      <point x="827" y="588" type="qcurve"/>
      <point x="829" y="608"/>
      <point x="829" y="616" type="qcurve"/>
      <point x="829" y="684"/>
      <point x="768" y="717" type="qcurve"/>
      <point x="669" y="770"/>
      <point x="567" y="770" type="qcurve"/>
      <point x="487" y="770"/>
      <point x="248" y="692" type="qcurve"/>
      <point x="248" y="930" type="line"/>
      <point x="2" y="930" type="line"/>
      <point x="0" y="1024" type="line"/>
      <point x="1251" y="1024" type="line"/>
      <point x="1251" y="930" type="line"/>
      <point x="352" y="930" type="line"/>
      <point x="350" y="836" type="line"/>
      <point x="443" y="860"/>
      <point x="569" y="879" type="qcurve"/>
      <point x="609" y="885"/>
      <point x="698" y="864" type="qcurve"/>
      <point x="954" y="804"/>
      <point x="954" y="586" type="qcurve"/>
      <point x="954" y="461"/>
      <point x="856" y="362" type="qcurve"/>
      <point x="842" y="354"/>
      <point x="827" y="348" type="qcurve"/>
      <point x="834" y="348" type="line"/>
    </contour>
    <contour>
      <point x="587" y="432"/>
      <point x="500" y="440" type="qcurve"/>
      <point x="378" y="440"/>
      <point x="377" y="377" type="qcurve"/>
      <point x="376" y="309"/>
      <point x="541" y="309" type="qcurve"/>
      <point x="575" y="309"/>
      <point x="680" y="356" type="qcurve"/>
      <point x="616" y="420"/>
      <point x="561" y="432" type="qcurve"/>
    </contour>
  </outline>
</glyph>
<glyph name="cha-GurungKhema" format="2">
  <advance width="1229"/>
  <unicode hex="16107"/>
  <outline>
    <contour>
      <point x="1155" y="0" type="line"/>
      <point x="1057" y="0" type="line"/>
      <point x="1057" y="922" type="line"/>
      <point x="946" y="922" type="line"/>
      <point x="946" y="-2" type="line"/>
      <point x="874" y="0" type="line"/>
      <point x="508" y="252" type="line"/>
      <point x="403" y="156"/>
      <point x="262" y="156" type="qcurve"/>
      <point x="203" y="156"/>
      <point x="146" y="189" type="qcurve"/>
      <point x="85" y="224"/>
      <point x="66" y="276" type="qcurve"/>
      <point x="55" y="306"/>
      <point x="53" y="334" type="qcurve"/>
      <point x="49" y="398"/>
      <point x="119" y="446" type="qcurve"/>
      <point x="182" y="491"/>
      <point x="248" y="489" type="qcurve"/>
      <point x="333" y="487"/>
      <point x="377" y="467" type="qcurve"/>
      <point x="430" y="436"/>
      <point x="481" y="408" type="qcurve"/>
      <point x="530" y="487"/>
      <point x="530" y="549" type="qcurve"/>
      <point x="530" y="605"/>
      <point x="432" y="695"/>
      <point x="375" y="694" type="qcurve"/>
      <point x="352" y="694"/>
      <point x="287" y="694" type="qcurve"/>
      <point x="230" y="693"/>
      <point x="166" y="655" type="qcurve"/>
      <point x="148" y="643"/>
      <point x="113" y="621" type="qcurve"/>
      <point x="33" y="698" type="line"/>
      <point x="147" y="811"/>
      <point x="338" y="811" type="qcurve"/>
      <point x="496" y="811"/>
      <point x="557" y="748" type="qcurve"/>
      <point x="585" y="719"/>
      <point x="631" y="635" type="qcurve"/>
      <point x="653" y="519"/>
      <point x="631" y="455" type="qcurve"/>
      <point x="623" y="431"/>
      <point x="612" y="391" type="qcurve"/>
      <point x="610" y="387"/>
      <point x="580" y="338" type="qcurve"/>
      <point x="840" y="152" type="line"/>
      <point x="842" y="922" type="line"/>
      <point x="0" y="922" type="line"/>
      <point x="0" y="1024" type="line"/>
      <point x="1231" y="1024" type="line"/>
      <point x="1231" y="922" type="line"/>
      <point x="1155" y="922" type="line"/>
    </contour>
    <contour>
      <point x="342" y="260"/>
      <point x="422" y="313" type="qcurve"/>
      <point x="336" y="385"/>
      <point x="274" y="385" type="qcurve"/>
      <point x="180" y="385"/>
      <point x="180" y="328" type="qcurve"/>
      <point x="180" y="260"/>
      <point x="283" y="260" type="qcurve"/>
    </contour>
  </outline>
</glyph>
<glyph name="jha-GurungKhema" format="2">
  <advance width="1229"/>
  <unicode hex="16109"/>
  <outline>
    <contour>
      <point x="483" y="901"/>
      <point x="483" y="762" type="qcurve"/>
      <point x="483" y="627"/>
      <point x="365" y="606" type="qcurve"/>
      <point x="473" y="604"/>
      <point x="548" y="564" type="qcurve"/>
      <point x="641" y="515"/>
      <point x="653" y="418" type="qcurve"/>
      <point x="655" y="402"/>
      <point x="655" y="377" type="qcurve"/>
      <point x="655" y="313"/>
      <point x="625" y="250" type="qcurve"/>
      <point x="752" y="147" type="line"/>
      <point x="752" y="922" type="line"/>
      <point x="350" y="922" type="line"/>
    </contour>
    <contour>
      <point x="545" y="381"/>
      <point x="545" y="397" type="qcurve"/>
      <point x="545" y="524"/>
      <point x="170" y="518" type="qcurve"/>
      <point x="172" y="631" type="line"/>
      <point x="241" y="629"/>
      <point x="297" y="655" type="qcurve"/>
      <point x="369" y="688"/>
      <point x="369" y="750" type="qcurve"/>
      <point x="369" y="825"/>
      <point x="270" y="825" type="qcurve"/>
      <point x="166" y="825"/>
      <point x="121" y="768" type="qcurve"/>
      <point x="47" y="840" type="line"/>
      <point x="94" y="899"/>
      <point x="154" y="922" type="qcurve"/>
      <point x="2" y="922" type="line"/>
      <point x="2" y="1026" type="line"/>
      <point x="1233" y="1026" type="line"/>
      <point x="1233" y="922" type="line"/>
      <point x="858" y="922" type="line"/>
      <point x="858" y="0" type="line"/>
      <point x="768" y="-2" type="line"/>
      <point x="578" y="147" type="line"/>
      <point x="498" y="84"/>
      <point x="360" y="84" type="qcurve"/>
      <point x="266" y="84"/>
      <point x="186" y="127" type="qcurve"/>
      <point x="90" y="179"/>
      <point x="90" y="266" type="qcurve"/>
      <point x="90" y="288"/>
      <point x="102" y="311" type="qcurve"/>
      <point x="156" y="412"/>
      <point x="287" y="412" type="qcurve"/>
      <point x="414" y="412"/>
      <point x="532" y="315" type="qcurve"/>
    </contour>
    <contour>
      <point x="395" y="309"/>
      <point x="303" y="309" type="qcurve"/>
      <point x="215" y="309"/>
      <point x="215" y="256" type="qcurve"/>
      <point x="215" y="218"/>
      <point x="283" y="197" type="qcurve"/>
      <point x="339" y="180"/>
      <point x="371" y="180" type="qcurve"/>
      <point x="422" y="180"/>
      <point x="485" y="219" type="qcurve"/>
    </contour>
    <contour>
      <point x="1105" y="951" type="line"/>
      <point x="1105" y="0" type="line"/>
      <point x="1009" y="0" type="line"/>
      <point x="1009" y="951" type="line"/>
    </contour>
  </outline>
</glyph>
<glyph name="ha-GurungKhema" format="2">
  <advance width="1147"/>
  <unicode hex="1610A"/>
  <outline>
    <contour>
      <point x="897" y="182"/>
      <point x="897" y="203" type="qcurve"/>
      <point x="897" y="248"/>
      <point x="917" y="305" type="qcurve"/>
      <point x="944" y="383"/>
      <point x="952" y="422" type="qcurve"/>
      <point x="973" y="529"/>
      <point x="973" y="551" type="qcurve"/>
      <point x="973" y="714"/>
      <point x="891" y="778" type="qcurve"/>
      <point x="833" y="824"/>
      <point x="764" y="817" type="qcurve"/>
      <point x="619" y="803"/>
      <point x="590" y="612" type="qcurve"/>
      <point x="590" y="373" type="line"/>
      <point x="451" y="373" type="line"/>
      <point x="451" y="621" type="line"/>
      <point x="420" y="808"/>
      <point x="283" y="808" type="qcurve"/>
      <point x="229" y="808"/>
      <point x="186" y="760" type="qcurve"/>
      <point x="147" y="717"/>
      <point x="138" y="660" type="qcurve"/>
      <point x="132" y="625"/>
      <point x="139" y="545" type="qcurve"/>
      <point x="141" y="518"/>
      <point x="162" y="459" type="qcurve"/>
      <point x="190" y="379"/>
      <point x="197" y="350" type="qcurve"/>
      <point x="90" y="305" type="line"/>
      <point x="78" y="353"/>
      <point x="47" y="469" type="qcurve"/>
      <point x="20" y="570"/>
      <point x="20" y="610" type="qcurve"/>
      <point x="20" y="844"/>
      <point x="221" y="920" type="qcurve"/>
      <point x="2" y="920" type="line"/>
      <point x="2" y="1026" type="line"/>
      <point x="1147" y="1026" type="line"/>
      <point x="1147" y="920" type="line"/>
      <point x="870" y="920" type="line"/>
      <point x="1034" y="854"/>
      <point x="1069" y="698" type="qcurve"/>
      <point x="1087" y="618"/>
      <point x="1087" y="573" type="qcurve"/>
      <point x="1087" y="510"/>
      <point x="1069" y="432" type="qcurve"/>
      <point x="1068" y="429"/>
      <point x="1032" y="322" type="qcurve"/>
      <point x="1010" y="257"/>
      <point x="1010" y="211" type="qcurve"/>
      <point x="1010" y="145"/>
      <point x="1073" y="70" type="qcurve"/>
      <point x="971" y="2" type="line"/>
      <point x="942" y="47"/>
      <point x="901" y="158" type="qcurve"/>
    </contour>
    <contour>
      <point x="426" y="901"/>
      <point x="467" y="850" type="qcurve"/>
      <point x="473" y="844"/>
      <point x="514" y="754" type="qcurve"/>
      <point x="551" y="827"/>
      <point x="573" y="850" type="qcurve"/>
      <point x="635" y="915"/>
      <point x="702" y="920" type="qcurve"/>
      <point x="354" y="920" type="line"/>
    </contour>
  </outline>
</glyph>
<glyph name="tta-GurungKhema" format="2">
  <advance width="1106"/>
  <unicode hex="1610B"/>
  <outline>
    <contour>
      <point x="1108" y="1026" type="line"/>
      <point x="1108" y="920" type="line"/>
      <point x="758" y="920" type="line"/>
      <point x="754" y="732"/>
      <point x="629" y="707" type="qcurve"/>
      <point x="588" y="699"/>
      <point x="508" y="702" type="qcurve"/>
      <point x="394" y="707"/>
      <point x="297" y="678" type="qcurve"/>
      <point x="160" y="637"/>
      <point x="147" y="543" type="qcurve"/>
      <point x="143" y="513"/>
      <point x="143" y="498" type="qcurve"/>
      <point x="143" y="379"/>
      <point x="260" y="322" type="qcurve"/>
      <point x="316" y="295"/>
      <point x="418" y="297" type="qcurve"/>
      <point x="506" y="299"/>
      <point x="590" y="340" type="qcurve"/>
      <point x="648" y="368"/>
      <point x="748" y="408" type="qcurve"/>
      <point x="766" y="412"/>
      <point x="791" y="412" type="qcurve"/>
      <point x="814" y="412"/>
      <point x="829" y="408" type="qcurve"/>
      <point x="863" y="399"/>
      <point x="928" y="254" type="qcurve"/>
      <point x="1042" y="0" type="line"/>
      <point x="924" y="0" type="line"/>
      <point x="840" y="186" type="line"/>
      <point x="816" y="240"/>
      <point x="803" y="254" type="qcurve"/>
      <point x="777" y="283"/>
      <point x="743" y="266" type="qcurve"/>
      <point x="647" y="219" type="line"/>
      <point x="547" y="170"/>
      <point x="412" y="170" type="qcurve"/>
      <point x="167" y="170"/>
      <point x="74" y="330" type="qcurve"/>
      <point x="25" y="414"/>
      <point x="25" y="498" type="qcurve"/>
      <point x="25" y="546"/>
      <point x="39" y="588" type="qcurve"/>
      <point x="108" y="793"/>
      <point x="401" y="817" type="qcurve"/>
      <point x="425" y="819"/>
      <point x="557" y="821" type="qcurve"/>
      <point x="655" y="838"/>
      <point x="649" y="920" type="qcurve"/>
      <point x="2" y="920" type="line"/>
      <point x="2" y="1026" type="line"/>
    </contour>
  </outline>
</glyph>
<glyph name="dda-GurungKhema" format="2">
  <advance width="1147"/>
  <unicode hex="1610D"/>
  <outline>
    <contour>
      <point x="549" y="901"/>
      <point x="541" y="885" type="qcurve"/>
      <point x="526" y="844"/>
      <point x="483" y="836" type="qcurve"/>
      <point x="348" y="811" type="line"/>
      <point x="255" y="794"/>
      <point x="203" y="764" type="qcurve"/>
      <point x="43" y="672"/>
      <point x="43" y="516" type="qcurve"/>
      <point x="43" y="484"/>
      <point x="49" y="461" type="qcurve"/>
      <point x="83" y="329"/>
      <point x="201" y="279" type="qcurve"/>
      <point x="288" y="242"/>
      <point x="444" y="242" type="qcurve"/>
      <point x="470" y="242"/>
      <point x="572" y="252"/>
      <point x="598" y="252" type="qcurve"/>
      <point x="679" y="252"/>
      <point x="735" y="197" type="qcurve"/>
      <point x="934" y="0" type="line"/>
      <point x="1022" y="-2" type="line"/>
      <point x="1022" y="922" type="line"/>
      <point x="1147" y="922" type="line"/>
      <point x="1147" y="1024" type="line"/>
      <point x="2" y="1024" type="line"/>
      <point x="2" y="922" type="line"/>
      <point x="549" y="922" type="line"/>
    </contour>
    <contour>
      <point x="686" y="367"/>
      <point x="606" y="367" type="qcurve"/>
      <point x="573" y="367"/>
      <point x="443" y="350"/>
      <point x="410" y="350" type="qcurve"/>
      <point x="197" y="350"/>
      <point x="168" y="485" type="qcurve"/>
      <point x="164" y="504"/>
      <point x="164" y="520" type="qcurve"/>
      <point x="164" y="698"/>
      <point x="524" y="748" type="qcurve"/>
      <point x="588" y="757"/>
      <point x="637" y="807" type="qcurve"/>
      <point x="668" y="839"/>
      <point x="672" y="922" type="qcurve"/>
      <point x="934" y="922" type="line"/>
      <point x="934" y="135" type="line"/>
      <point x="928" y="145"/>
      <point x="840" y="233" type="qcurve"/>
      <point x="762" y="311" type="line"/>
    </contour>
  </outline>
</glyph>
<glyph name="ddha-GurungKhema" format="2">
  <advance width="1372"/>
  <unicode hex="1610E"/>
  <outline>
    <contour>
      <point x="-1" y="922" type="line"/>
      <point x="0" y="1024" type="line"/>
      <point x="1374" y="1024" type="line"/>
      <point x="1374" y="922" type="line"/>
      <point x="1270" y="922" type="line"/>
      <point x="1270" y="-2" type="line"/>
      <point x="1169" y="-2" type="line"/>
      <point x="1169" y="922" type="line"/>
      <point x="1042" y="922" type="line"/>
      <point x="1044" y="-2" type="line"/>
      <point x="934" y="0" type="line"/>
      <point x="735" y="197" type="line"/>
      <point x="679" y="252"/>
      <point x="600" y="252" type="qcurve"/>
      <point x="574" y="252"/>
      <point x="470" y="242"/>
      <point x="444" y="242" type="qcurve"/>
      <point x="288" y="242"/>
      <point x="201" y="279" type="qcurve"/>
      <point x="83" y="329"/>
      <point x="49" y="461" type="qcurve"/>
      <point x="43" y="484"/>
      <point x="43" y="516" type="qcurve"/>
      <point x="43" y="671"/>
      <point x="203" y="764" type="qcurve"/>
      <point x="254" y="793"/>
      <point x="481" y="836" type="qcurve"/>
      <point x="547" y="848"/>
      <point x="549" y="922" type="qcurve"/>
    </contour>
    <contour>
      <point x="840" y="233" type="line"/>
      <point x="928" y="145"/>
      <point x="934" y="135" type="qcurve"/>
      <point x="934" y="922" type="line"/>
      <point x="672" y="922" type="line"/>
      <point x="668" y="839"/>
      <point x="637" y="807" type="qcurve"/>
      <point x="588" y="757"/>
      <point x="524" y="748" type="qcurve"/>
      <point x="164" y="698"/>
      <point x="164" y="520" type="qcurve"/>
      <point x="164" y="504"/>
      <point x="168" y="485" type="qcurve"/>
      <point x="197" y="350"/>
      <point x="410" y="350" type="qcurve"/>
      <point x="443" y="350"/>
      <point x="573" y="367"/>
      <point x="606" y="367" type="qcurve"/>
      <point x="686" y="367"/>
      <point x="762" y="311" type="qcurve"/>
    </contour>
  </outline>
</glyph>
<glyph name="ta-GurungKhema" format="2">
  <advance width="1085"/>
  <unicode hex="16110"/>
  <outline>
    <contour>
      <point x="1024" y="0" type="line"/>
      <point x="883" y="-2" type="line"/>
      <point x="489" y="451" type="line"/>
      <point x="225" y="-2" type="line"/>
      <point x="92" y="-2" type="line"/>
      <point x="643" y="924" type="line"/>
      <point x="0" y="924" type="line"/>
      <point x="0" y="1026" type="line"/>
      <point x="1085" y="1026" type="line"/>
      <point x="1085" y="924" type="line"/>
      <point x="764" y="924" type="line"/>
      <point x="549" y="547" type="line"/>
    </contour>
  </outline>
</glyph>
<glyph name="tha-GurungKhema" format="2">
  <advance width="1331"/>
  <unicode hex="16111"/>
  <outline>
    <contour>
      <point x="1241" y="0" type="line"/>
      <point x="1141" y="0" type="line"/>
      <point x="1141" y="924" type="line"/>
      <point x="758" y="924" type="line"/>
      <point x="543" y="547" type="line"/>
      <point x="1018" y="0" type="line"/>
      <point x="877" y="-2" type="line"/>
      <point x="483" y="451" type="line"/>
      <point x="219" y="-2" type="line"/>
      <point x="86" y="-2" type="line"/>
      <point x="637" y="924" type="line"/>
      <point x="0" y="924" type="line"/>
      <point x="0" y="1026" type="line"/>
      <point x="1331" y="1026" type="line"/>
      <point x="1331" y="924" type="line"/>
      <point x="1241" y="924" type="line"/>
    </contour>
  </outline>
</glyph>
<glyph name="da-GurungKhema" format="2">
  <advance width="1126"/>
  <unicode hex="16112"/>
  <outline>
    <contour>
      <point x="1014" y="0" type="line"/>
      <point x="1014" y="920" type="line"/>
      <point x="1126" y="920" type="line"/>
      <point x="1126" y="1026" type="line"/>
      <point x="0" y="1026" type="line"/>
      <point x="0" y="920" type="line"/>
      <point x="629" y="920" type="line"/>
      <point x="629" y="858" type="line"/>
      <point x="325" y="858"/>
      <point x="221" y="834" type="qcurve"/>
      <point x="165" y="821"/>
      <point x="74" y="729"/>
      <point x="66" y="674" type="qcurve"/>
      <point x="72" y="582"/>
      <point x="137" y="537" type="qcurve"/>
      <point x="156" y="498"/>
      <point x="379" y="498" type="qcurve"/>
      <point x="461" y="498" type="line"/>
      <point x="525" y="498"/>
      <point x="578" y="471" type="qcurve"/>
      <point x="643" y="438"/>
      <point x="649" y="381" type="qcurve"/>
      <point x="645" y="371"/>
      <point x="616" y="293" type="qcurve"/>
      <point x="567" y="322"/>
      <point x="504" y="354" type="qcurve"/>
      <point x="424" y="383"/>
      <point x="377" y="387" type="qcurve"/>
      <point x="353" y="389"/>
      <point x="330" y="387" type="qcurve"/>
      <point x="307" y="385"/>
      <point x="299" y="385" type="qcurve"/>
      <point x="212" y="385"/>
      <point x="154" y="356" type="qcurve"/>
      <point x="131" y="344"/>
      <point x="86" y="266"/>
      <point x="88" y="240" type="qcurve"/>
      <point x="102" y="86"/>
      <point x="414" y="86" type="qcurve"/>
      <point x="498" y="86"/>
      <point x="637" y="160" type="qcurve"/>
      <point x="913" y="0" type="line"/>
    </contour>
    <contour>
      <point x="717" y="229" type="line"/>
      <point x="756" y="285"/>
      <point x="754" y="375" type="qcurve"/>
      <point x="752" y="475"/>
      <point x="668" y="535" type="qcurve"/>
      <point x="595" y="588"/>
      <point x="489" y="594" type="qcurve"/>
      <point x="421" y="588"/>
      <point x="313" y="598" type="qcurve"/>
      <point x="190" y="610"/>
      <point x="199" y="680" type="qcurve"/>
      <point x="205" y="732"/>
      <point x="328" y="748" type="qcurve"/>
      <point x="418" y="760"/>
      <point x="721" y="760" type="qcurve"/>
      <point x="721" y="920" type="line"/>
      <point x="915" y="920" type="line"/>
      <point x="913" y="115" type="line"/>
    </contour>
    <contour>
      <point x="219" y="282"/>
      <point x="319" y="291" type="qcurve"/>
      <point x="366" y="295"/>
      <point x="451" y="264" type="qcurve"/>
      <point x="459" y="260"/>
      <point x="549" y="217" type="qcurve"/>
      <point x="466" y="182"/>
      <point x="370" y="182" type="qcurve"/>
      <point x="239" y="182"/>
      <point x="227" y="242" type="qcurve"/>
    </contour>
  </outline>
</glyph>
<glyph name="dha-GurungKhema" format="2">
  <advance width="1372"/>
  <unicode hex="16113"/>
  <outline>
    <contour>
      <point x="915" y="920" type="line"/>
      <point x="721" y="920" type="line"/>
      <point x="721" y="760" type="line"/>
      <point x="418" y="760"/>
      <point x="328" y="748" type="qcurve"/>
      <point x="205" y="732"/>
      <point x="199" y="680" type="qcurve"/>
      <point x="191" y="615"/>
      <point x="313" y="598" type="qcurve"/>
      <point x="368" y="590"/>
      <point x="424" y="592" type="qcurve"/>
      <point x="489" y="594" type="line"/>
      <point x="595" y="588"/>
      <point x="668" y="535" type="qcurve"/>
      <point x="752" y="475"/>
      <point x="754" y="375" type="qcurve"/>
      <point x="756" y="285"/>
      <point x="717" y="229" type="qcurve"/>
      <point x="913" y="115" type="line"/>
    </contour>
    <contour>
      <point x="239" y="182"/>
      <point x="370" y="182" type="qcurve"/>
      <point x="466" y="182"/>
      <point x="549" y="217" type="qcurve"/>
      <point x="508" y="239"/>
      <point x="451" y="264" type="qcurve"/>
      <point x="377" y="297"/>
      <point x="319" y="291" type="qcurve"/>
      <point x="219" y="280"/>
      <point x="227" y="242" type="qcurve"/>
    </contour>
    <contour>
      <point x="1257" y="0" type="line"/>
      <point x="1161" y="0" type="line"/>
      <point x="1161" y="920" type="line"/>
      <point x="1014" y="920" type="line"/>
      <point x="1014" y="0" type="line"/>
      <point x="913" y="0" type="line"/>
      <point x="637" y="160" type="line"/>
      <point x="498" y="86"/>
      <point x="414" y="86" type="qcurve"/>
      <point x="104" y="86"/>
      <point x="88" y="240" type="qcurve"/>
      <point x="85" y="266"/>
      <point x="130" y="344"/>
      <point x="154" y="356" type="qcurve"/>
      <point x="212" y="385"/>
      <point x="299" y="385" type="qcurve"/>
      <point x="307" y="385"/>
      <point x="330" y="387" type="qcurve"/>
      <point x="353" y="389"/>
      <point x="377" y="387" type="qcurve"/>
      <point x="424" y="383"/>
      <point x="504" y="354" type="qcurve"/>
      <point x="528" y="338"/>
      <point x="616" y="293" type="qcurve"/>
      <point x="646" y="375"/>
      <point x="649" y="381" type="qcurve"/>
      <point x="643" y="441"/>
      <point x="580" y="469" type="qcurve"/>
      <point x="549" y="483"/>
      <point x="461" y="498" type="qcurve"/>
      <point x="379" y="498" type="line"/>
      <point x="156" y="498"/>
      <point x="137" y="537" type="qcurve"/>
      <point x="72" y="580"/>
      <point x="66" y="674" type="qcurve"/>
      <point x="74" y="729"/>
      <point x="165" y="821"/>
      <point x="221" y="834" type="qcurve"/>
      <point x="325" y="858"/>
      <point x="629" y="858" type="qcurve"/>
      <point x="629" y="920" type="line"/>
      <point x="0" y="920" type="line"/>
      <point x="0" y="1026" type="line"/>
      <point x="1372" y="1026" type="line"/>
      <point x="1372" y="920" type="line"/>
      <point x="1257" y="920" type="line"/>
    </contour>
  </outline>
</glyph>
<glyph name="na-GurungKhema" format="2">
  <advance width="1024"/>
  <unicode hex="16114"/>
  <outline>
    <contour>
      <point x="578" y="920" type="line"/>
      <point x="578" y="127" type="line"/>
      <point x="784" y="139"/>
      <point x="848" y="258" type="qcurve"/>
      <point x="995" y="258" type="line"/>
      <point x="941" y="125"/>
      <point x="802" y="57" type="qcurve"/>
      <point x="681" y="-2"/>
      <point x="524" y="-2" type="qcurve"/>
      <point x="188" y="-2"/>
      <point x="33" y="262" type="qcurve"/>
      <point x="184" y="262" type="line"/>
      <point x="215" y="212"/>
      <point x="307" y="170" type="qcurve"/>
      <point x="394" y="129"/>
      <point x="457" y="129" type="qcurve"/>
      <point x="457" y="920" type="line"/>
      <point x="0" y="920" type="line"/>
      <point x="0" y="1026" type="line"/>
      <point x="1024" y="1026" type="line"/>
      <point x="1024" y="920" type="line"/>
    </contour>
  </outline>
</glyph>
<glyph name="pa-GurungKhema" format="2">
  <advance width="922"/>
  <unicode hex="16115"/>
  <outline>
    <contour>
      <point x="922" y="1024" type="line"/>
      <point x="922" y="922" type="line"/>
      <point x="262" y="922" type="line"/>
      <point x="262" y="616" type="line"/>
      <point x="367" y="733"/>
      <point x="537" y="733" type="qcurve"/>
      <point x="704" y="733"/>
      <point x="802" y="626" type="qcurve"/>
      <point x="897" y="522"/>
      <point x="895" y="354" type="qcurve"/>
      <point x="893" y="194"/>
      <point x="681" y="-3"/>
      <point x="520" y="-2" type="qcurve"/>
      <point x="394" y="-1"/>
      <point x="338" y="35" type="qcurve"/>
      <point x="141" y="163"/>
      <point x="141" y="369" type="qcurve"/>
      <point x="141" y="922" type="line"/>
      <point x="0" y="922" type="line"/>
      <point x="0" y="1024" type="line"/>
    </contour>
    <contour>
      <point x="283" y="145"/>
      <point x="516" y="117" type="qcurve"/>
      <point x="765" y="131"/>
      <point x="784" y="344" type="qcurve"/>
      <point x="786" y="367"/>
      <point x="786" y="370" type="qcurve"/>
      <point x="786" y="478"/>
      <point x="708" y="547" type="qcurve"/>
      <point x="633" y="612"/>
      <point x="524" y="612" type="qcurve"/>
      <point x="346" y="594"/>
      <point x="262" y="453" type="qcurve"/>
      <point x="262" y="342" type="line"/>
    </contour>
  </outline>
</glyph>
<glyph name="pha-GurungKhema" format="2">
  <advance width="1225"/>
  <unicode hex="16116"/>
  <outline>
    <contour>
      <point x="1225" y="1024" type="line"/>
      <point x="1225" y="920" type="line"/>
      <point x="1120" y="920" type="line"/>
      <point x="1118" y="0" type="line"/>
      <point x="1012" y="0" type="line"/>
      <point x="1012" y="920" type="line"/>
      <point x="258" y="920" type="line"/>
      <point x="258" y="618" type="line"/>
      <point x="365" y="733"/>
      <point x="539" y="733" type="qcurve"/>
      <point x="706" y="733"/>
      <point x="804" y="626" type="qcurve"/>
      <point x="899" y="522"/>
      <point x="897" y="354" type="qcurve"/>
      <point x="895" y="195"/>
      <point x="682" y="-5"/>
      <point x="522" y="-4" type="qcurve"/>
      <point x="408" y="-3"/>
      <point x="340" y="35" type="qcurve"/>
      <point x="143" y="146"/>
      <point x="143" y="369" type="qcurve"/>
      <point x="143" y="920" type="line"/>
      <point x="0" y="920" type="line"/>
      <point x="0" y="1024" type="line"/>
    </contour>
    <contour>
      <point x="281" y="145"/>
      <point x="518" y="117" type="qcurve"/>
      <point x="767" y="131"/>
      <point x="786" y="344" type="qcurve"/>
      <point x="788" y="367"/>
      <point x="788" y="370" type="qcurve"/>
      <point x="788" y="478"/>
      <point x="710" y="547" type="qcurve"/>
      <point x="635" y="612"/>
      <point x="526" y="612" type="qcurve"/>
      <point x="344" y="594"/>
      <point x="260" y="453" type="qcurve"/>
      <point x="260" y="342" type="line"/>
    </contour>
  </outline>
</glyph>
<glyph name="bha-GurungKhema" format="2">
  <advance width="1331"/>
  <unicode hex="16118"/>
  <outline>
    <contour>
      <point x="1225" y="0" type="line"/>
      <point x="1116" y="0" type="line"/>
      <point x="1116" y="922" type="line"/>
      <point x="983" y="922" type="line"/>
      <point x="983" y="0" type="line"/>
      <point x="881" y="0" type="line"/>
      <point x="829" y="86"/>
      <point x="719" y="233" type="qcurve"/>
      <point x="638" y="319"/>
      <point x="467" y="362" type="qcurve"/>
      <point x="221" y="424"/>
      <point x="186" y="438" type="qcurve"/>
      <point x="39" y="499"/>
      <point x="39" y="678" type="qcurve"/>
      <point x="39" y="737"/>
      <point x="47" y="752" type="qcurve"/>
      <point x="113" y="873"/>
      <point x="231" y="922" type="qcurve"/>
      <point x="0" y="922" type="line"/>
      <point x="0" y="1026" type="line"/>
      <point x="1331" y="1026" type="line"/>
      <point x="1331" y="922" type="line"/>
      <point x="1225" y="922" type="line"/>
    </contour>
    <contour>
      <point x="657" y="873"/>
      <point x="653" y="764" type="qcurve"/>
      <point x="647" y="582"/>
      <point x="406" y="582" type="qcurve"/>
      <point x="246" y="582"/>
      <point x="170" y="657" type="qcurve"/>
      <point x="182" y="557"/>
      <point x="317" y="510" type="qcurve"/>
      <point x="359" y="495"/>
      <point x="479" y="483" type="qcurve"/>
      <point x="493" y="482"/>
      <point x="612" y="444" type="qcurve"/>
      <point x="685" y="421"/>
      <point x="729" y="377" type="qcurve"/>
      <point x="764" y="342"/>
      <point x="868" y="197" type="qcurve"/>
      <point x="868" y="924" type="line"/>
      <point x="524" y="922" type="line"/>
    </contour>
    <contour>
      <point x="284" y="695"/>
      <point x="389" y="690" type="qcurve"/>
      <point x="438" y="687"/>
      <point x="479" y="702" type="qcurve"/>
      <point x="535" y="722"/>
      <point x="535" y="766" type="qcurve"/>
      <point x="535" y="783"/>
      <point x="508" y="807" type="qcurve"/>
      <point x="463" y="848"/>
      <point x="389" y="848" type="qcurve"/>
      <point x="289" y="848"/>
      <point x="197" y="772" type="qcurve"/>
    </contour>
  </outline>
</glyph>
<glyph name="ma-GurungKhema" format="2">
  <advance width="1126"/>
  <unicode hex="16119"/>
  <outline>
    <contour>
      <point x="1128" y="1026" type="line"/>
      <point x="1126" y="922" type="line"/>
      <point x="983" y="922" type="line"/>
      <point x="371" y="-2" type="line"/>
      <point x="219" y="0" type="line"/>
      <point x="510" y="444" type="line"/>
      <point x="147" y="922" type="line"/>
      <point x="0" y="922" type="line"/>
      <point x="2" y="1026" type="line"/>
    </contour>
    <contour>
      <point x="586" y="551" type="line"/>
      <point x="844" y="922" type="line"/>
      <point x="295" y="922" type="line"/>
    </contour>
  </outline>
</glyph>
<glyph name="ya-GurungKhema" format="2">
  <advance width="1124"/>
  <unicode hex="1611A"/>
  <outline>
    <contour>
      <point x="1124" y="1026" type="line"/>
      <point x="1124" y="920" type="line"/>
      <point x="330" y="920" type="line"/>
      <point x="330" y="557" type="line"/>
      <point x="507" y="547"/>
      <point x="653" y="443" type="qcurve"/>
      <point x="793" y="344"/>
      <point x="874" y="180" type="qcurve"/>
      <point x="874" y="567" type="line"/>
      <point x="987" y="567" type="line"/>
      <point x="987" y="0" type="line"/>
      <point x="860" y="0" type="line"/>
      <point x="776" y="207"/>
      <point x="625" y="307" type="qcurve"/>
      <point x="445" y="426"/>
      <point x="289" y="426" type="qcurve"/>
      <point x="252" y="426"/>
      <point x="209" y="422" type="qcurve"/>
      <point x="209" y="922" type="line"/>
      <point x="0" y="922" type="line"/>
      <point x="0" y="1026" type="line"/>
    </contour>
    <contour>
      <point x="866" y="817"/>
      <point x="928" y="817" type="qcurve"/>
      <point x="989" y="817"/>
      <point x="989" y="756" type="qcurve"/>
      <point x="989" y="694"/>
      <point x="928" y="694" type="qcurve"/>
      <point x="866" y="694"/>
      <point x="866" y="756" type="qcurve"/>
    </contour>
  </outline>
</glyph>
<glyph name="ra-GurungKhema" format="2">
  <advance width="1026"/>
  <unicode hex="1611B"/>
  <outline>
    <contour>
      <point x="244" y="449"/>
      <point x="244" y="489" type="qcurve"/>
      <point x="244" y="524"/>
      <point x="283" y="549" type="qcurve"/>
      <point x="348" y="590"/>
      <point x="465" y="590" type="qcurve"/>
      <point x="465" y="920" type="line"/>
      <point x="0" y="920" type="line"/>
      <point x="0" y="1026" type="line"/>
      <point x="1028" y="1026" type="line"/>
      <point x="1028" y="922" type="line"/>
      <point x="578" y="922" type="line"/>
      <point x="578" y="559" type="line"/>
      <point x="705" y="489"/>
      <point x="1137" y="66" type="qcurve"/>
      <point x="1079" y="-4" type="line"/>
      <point x="590" y="450"/>
      <point x="504" y="459" type="qcurve"/>
      <point x="494" y="460"/>
      <point x="481" y="460" type="qcurve"/>
      <point x="392" y="460"/>
      <point x="291" y="391" type="qcurve"/>
    </contour>
  </outline>
</glyph>
<glyph name="la-GurungKhema" format="2">
  <advance width="1225"/>
  <unicode hex="1611C"/>
  <outline>
    <contour>
      <point x="1225" y="1026" type="line"/>
      <point x="1225" y="920" type="line"/>
      <point x="254" y="920" type="line"/>
      <point x="254" y="465" type="line"/>
      <point x="254" y="177"/>
      <point x="385" y="182" type="qcurve"/>
      <point x="452" y="185"/>
      <point x="473" y="203" type="qcurve"/>
      <point x="506" y="232"/>
      <point x="522" y="342" type="qcurve"/>
      <point x="522" y="618" type="line"/>
      <point x="657" y="618" type="line"/>
      <point x="657" y="362" type="line"/>
      <point x="657" y="324"/>
      <point x="702" y="272" type="qcurve"/>
      <point x="781" y="182"/>
      <point x="872" y="182" type="qcurve"/>
      <point x="905" y="182"/>
      <point x="946" y="188" type="qcurve"/>
      <point x="819" y="322"/>
      <point x="821" y="524" type="qcurve"/>
      <point x="823" y="710"/>
      <point x="942" y="756" type="qcurve"/>
      <point x="979" y="770"/>
      <point x="1016" y="770" type="qcurve"/>
      <point x="1112" y="770"/>
      <point x="1165" y="672" type="qcurve"/>
      <point x="1210" y="589"/>
      <point x="1210" y="485" type="qcurve"/>
      <point x="1210" y="330"/>
      <point x="1135" y="176" type="qcurve"/>
      <point x="1341" y="0" type="line"/>
      <point x="1196" y="0" type="line"/>
      <point x="1059" y="106" type="line"/>
      <point x="970" y="46"/>
      <point x="877" y="49" type="qcurve"/>
      <point x="702" y="55"/>
      <point x="608" y="180" type="qcurve"/>
      <point x="526" y="79"/>
      <point x="455" y="66" type="qcurve"/>
      <point x="397" y="55"/>
      <point x="381" y="57" type="qcurve"/>
      <point x="278" y="71"/>
      <point x="215" y="145" type="qcurve"/>
      <point x="124" y="252"/>
      <point x="125" y="674" type="qcurve"/>
      <point x="125" y="785"/>
      <point x="127" y="920" type="qcurve"/>
      <point x="2" y="920" type="line"/>
      <point x="2" y="1026" type="line"/>
    </contour>
    <contour>
      <point x="930" y="385"/>
      <point x="1034" y="252" type="qcurve"/>
      <point x="1106" y="387"/>
      <point x="1104" y="483" type="qcurve"/>
      <point x="1100" y="655"/>
      <point x="1018" y="655" type="qcurve"/>
      <point x="973" y="655"/>
      <point x="948" y="592" type="qcurve"/>
      <point x="930" y="547"/>
      <point x="930" y="492" type="qcurve"/>
    </contour>
  </outline>
</glyph>
<glyph name="sa-GurungKhema" format="2">
  <advance width="1328"/>
  <unicode hex="1611D"/>
  <outline>
    <contour>
      <point x="679" y="177"/>
      <point x="668" y="182" type="qcurve"/>
      <point x="615" y="207"/>
      <point x="589" y="216" type="qcurve"/>
      <point x="539" y="234"/>
      <point x="508" y="236" type="qcurve"/>
      <point x="467" y="238"/>
      <point x="432" y="229" type="qcurve"/>
      <point x="381" y="216"/>
      <point x="385" y="180" type="qcurve"/>
      <point x="390" y="137"/>
      <point x="483" y="115" type="qcurve"/>
      <point x="562" y="96"/>
      <point x="612" y="102" type="qcurve"/>
      <point x="731" y="117"/>
      <point x="744" y="137" type="qcurve"/>
    </contour>
    <contour>
      <point x="1075" y="922" type="line"/>
      <point x="625" y="922" type="line"/>
      <point x="691" y="901"/>
      <point x="705" y="895" type="qcurve"/>
      <point x="787" y="857"/>
      <point x="795" y="784" type="qcurve"/>
      <point x="802" y="713"/>
      <point x="787" y="649" type="qcurve"/>
      <point x="781" y="622"/>
      <point x="688" y="569" type="qcurve"/>
      <point x="737" y="573"/>
      <point x="854" y="518"/>
      <point x="885" y="479" type="qcurve"/>
      <point x="948" y="398"/>
      <point x="948" y="317" type="qcurve"/>
      <point x="948" y="198"/>
      <point x="903" y="133" type="qcurve"/>
      <point x="1071" y="31" type="line"/>
      <point x="1186" y="172" type="line"/>
      <point x="1268" y="111" type="line"/>
      <point x="1090" y="-102" type="line"/>
      <point x="830" y="55" type="line"/>
      <point x="750" y="-4"/>
      <point x="559" y="-6" type="qcurve"/>
      <point x="442" y="12"/>
      <point x="381" y="43" type="qcurve"/>
      <point x="289" y="90"/>
      <point x="262" y="182" type="qcurve"/>
      <point x="268" y="240"/>
      <point x="289" y="266" type="qcurve"/>
      <point x="304" y="284"/>
      <point x="340" y="305" type="qcurve"/>
      <point x="398" y="338"/>
      <point x="455" y="338" type="qcurve"/>
      <point x="572" y="338"/>
      <point x="672" y="295" type="qcurve"/>
      <point x="710" y="279"/>
      <point x="813" y="205" type="qcurve"/>
      <point x="819" y="223"/>
      <point x="819" y="279" type="qcurve"/>
      <point x="819" y="403"/>
      <point x="684" y="469" type="qcurve"/>
      <point x="602" y="472"/>
      <point x="543" y="477" type="qcurve"/>
      <point x="520" y="479"/>
      <point x="480" y="473" type="qcurve"/>
      <point x="434" y="467"/>
      <point x="416" y="467" type="qcurve"/>
      <point x="418" y="582" type="line"/>
      <point x="469" y="586"/>
      <point x="551" y="606" type="qcurve"/>
      <point x="623" y="639"/>
      <point x="639" y="651" type="qcurve"/>
      <point x="681" y="682"/>
      <point x="680" y="735" type="qcurve"/>
      <point x="679" y="787"/>
      <point x="625" y="811" type="qcurve"/>
      <point x="580" y="832"/>
      <point x="526" y="825" type="qcurve"/>
      <point x="410" y="811"/>
      <point x="365" y="758" type="qcurve"/>
      <point x="281" y="825" type="line"/>
      <point x="305" y="895"/>
      <point x="420" y="922" type="qcurve"/>
      <point x="166" y="922" type="line"/>
      <point x="166" y="1024" type="line"/>
      <point x="1075" y="1024" type="line"/>
    </contour>
  </outline>
</glyph>
<glyph name="vowelsignaacomb-GurungKhema" format="2">
  <advance width="0"/>
  <unicode hex="1611E"/>
  <outline>
    <contour>
      <point x="-1027" y="1154" type="line"/>
      <point x="-169" y="1154" type="line"/>
      <point x="-169" y="1261" type="line"/>
      <point x="-1027" y="1261" type="line"/>
    </contour>
  </outline>
</glyph>
<glyph name="vowelsignicomb-GurungKhema" format="2">
  <advance width="0"/>
  <unicode hex="1611F"/>
  <outline>
    <contour>
      <point x="-734" y="1155"/>
      <point x="-821" y="1247"/>
      <point x="-821" y="1312" type="qcurve"/>
      <point x="-821" y="1377"/>
      <point x="-734" y="1466"/>
      <point x="-669" y="1466" type="qcurve"/>
      <point x="-603" y="1466"/>
      <point x="-515" y="1378"/>
      <point x="-515" y="1312" type="qcurve"/>
      <point x="-515" y="1247"/>
      <point x="-604" y="1155"/>
      <point x="-669" y="1155" type="qcurve"/>
    </contour>
    <contour>
      <point x="-733" y="1374"/>
      <point x="-733" y="1309" type="qcurve"/>
      <point x="-733" y="1245"/>
      <point x="-672" y="1245" type="qcurve"/>
      <point x="-607" y="1245"/>
      <point x="-607" y="1309" type="qcurve"/>
      <point x="-607" y="1374"/>
      <point x="-672" y="1374" type="qcurve"/>
    </contour>
  </outline>
</glyph>
<glyph name="vowelsigniicomb-GurungKhema" format="2">
  <advance width="0"/>
  <unicode hex="16120"/>
  <outline>
    <contour>
      <point x="-342" y="1158"/>
      <point x="-430" y="1248"/>
      <point x="-430" y="1315" type="qcurve"/>
      <point x="-430" y="1381"/>
      <point x="-342" y="1468"/>
      <point x="-276" y="1468" type="qcurve"/>
      <point x="-210" y="1468"/>
      <point x="-123" y="1380"/>
      <point x="-123" y="1315" type="qcurve"/>
      <point x="-123" y="1249"/>
      <point x="-210" y="1158"/>
      <point x="-276" y="1158" type="qcurve"/>
    </contour>
    <contour>
      <point x="-340" y="1377"/>
      <point x="-340" y="1312" type="qcurve"/>
      <point x="-340" y="1246"/>
      <point x="-278" y="1246" type="qcurve"/>
      <point x="-214" y="1246"/>
      <point x="-214" y="1312" type="qcurve"/>
      <point x="-214" y="1377"/>
      <point x="-278" y="1377" type="qcurve"/>
    </contour>
    <contour>
      <point x="-903" y="1158"/>
      <point x="-990" y="1249"/>
      <point x="-990" y="1315" type="qcurve"/>
      <point x="-990" y="1380"/>
      <point x="-902" y="1468"/>
      <point x="-837" y="1468" type="qcurve"/>
      <point x="-771" y="1468"/>
      <point x="-683" y="1381"/>
      <point x="-683" y="1315" type="qcurve"/>
      <point x="-683" y="1248"/>
      <point x="-771" y="1158"/>
      <point x="-837" y="1158" type="qcurve"/>
    </contour>
    <contour>
      <point x="-902" y="1377"/>
      <point x="-902" y="1312" type="qcurve"/>
      <point x="-902" y="1246"/>
      <point x="-840" y="1246" type="qcurve"/>
      <point x="-775" y="1246"/>
      <point x="-775" y="1312" type="qcurve"/>
      <point x="-775" y="1377"/>
      <point x="-840" y="1377" type="qcurve"/>
    </contour>
  </outline>
</glyph>
<glyph name="vowelsignucomb-GurungKhema" format="2">
  <advance width="0"/>
  <unicode hex="16121"/>
  <outline>
    <contour>
      <point x="-1027" y="1376" type="line"/>
      <point x="-169" y="1376" type="line"/>
      <point x="-169" y="1482" type="line"/>
      <point x="-1027" y="1482" type="line"/>
    </contour>
    <contour>
      <point x="-1027" y="1154" type="line"/>
      <point x="-169" y="1154" type="line"/>
      <point x="-169" y="1261" type="line"/>
      <point x="-1027" y="1261" type="line"/>
    </contour>
  </outline>
</glyph>
<glyph name="vowelsignuucomb-GurungKhema" format="2">
  <advance width="0"/>
  <unicode hex="16122"/>
  <outline>
    <contour>
      <point x="-169" y="1723" type="line"/>
      <point x="-169" y="1321" type="line"/>
      <point x="-1027" y="1321" type="line"/>
      <point x="-1027" y="1437" type="line"/>
      <point x="-285" y="1437" type="line"/>
      <point x="-285" y="1723" type="line"/>
    </contour>
    <contour>
      <point x="-1027" y="1230" type="line"/>
      <point x="-169" y="1230" type="line"/>
      <point x="-169" y="1125" type="line"/>
      <point x="-1027" y="1125" type="line"/>
    </contour>
  </outline>
</glyph>
<glyph name="vowelsignecomb-GurungKhema" format="2">
  <advance width="0"/>
  <unicode hex="16123"/>
  <outline>
    <contour>
      <point x="-685" y="1323"/>
      <point x="-773" y="1414"/>
      <point x="-773" y="1480" type="qcurve"/>
      <point x="-773" y="1546"/>
      <point x="-685" y="1633"/>
      <point x="-619" y="1633" type="qcurve"/>
      <point x="-554" y="1633"/>
      <point x="-466" y="1545"/>
      <point x="-466" y="1480" type="qcurve"/>
      <point x="-466" y="1414"/>
      <point x="-553" y="1323"/>
      <point x="-619" y="1323" type="qcurve"/>
    </contour>
    <contour>
      <point x="-684" y="1542"/>
      <point x="-684" y="1476" type="qcurve"/>
      <point x="-684" y="1411"/>
      <point x="-622" y="1411" type="qcurve"/>
      <point x="-557" y="1411"/>
      <point x="-557" y="1476" type="qcurve"/>
      <point x="-557" y="1542"/>
      <point x="-622" y="1542" type="qcurve"/>
    </contour>
    <contour>
      <point x="-1027" y="1105" type="line"/>
      <point x="-169" y="1105" type="line"/>
      <point x="-169" y="1212" type="line"/>
      <point x="-1027" y="1212" type="line"/>
    </contour>
  </outline>
</glyph>
<glyph name="vowelsigneecomb-GurungKhema" format="2">
  <advance width="0"/>
  <unicode hex="16124"/>
  <outline>
    <contour>
      <point x="-684" y="1317"/>
      <point x="-771" y="1408"/>
      <point x="-771" y="1474" type="qcurve"/>
      <point x="-771" y="1539"/>
      <point x="-684" y="1627"/>
      <point x="-619" y="1627" type="qcurve"/>
      <point x="-553" y="1627"/>
      <point x="-465" y="1539"/>
      <point x="-465" y="1474" type="qcurve"/>
      <point x="-465" y="1408"/>
      <point x="-553" y="1317"/>
      <point x="-619" y="1317" type="qcurve"/>
    </contour>
    <contour>
      <point x="-683" y="1536"/>
      <point x="-683" y="1471" type="qcurve"/>
      <point x="-683" y="1405"/>
      <point x="-622" y="1405" type="qcurve"/>
      <point x="-557" y="1405"/>
      <point x="-557" y="1471" type="qcurve"/>
      <point x="-557" y="1536"/>
      <point x="-622" y="1536" type="qcurve"/>
    </contour>
    <contour>
      <point x="-169" y="1527" type="line"/>
      <point x="-169" y="1125" type="line"/>
      <point x="-1027" y="1125" type="line"/>
      <point x="-1027" y="1241" type="line"/>
      <point x="-285" y="1241" type="line"/>
      <point x="-285" y="1527" type="line"/>
    </contour>
  </outline>
</glyph>
<glyph name="vowelsignaicomb-GurungKhema" format="2">
  <advance width="0"/>
  <unicode hex="16125"/>
  <outline>
    <contour>
      <point x="-400" y="1333"/>
      <point x="-488" y="1424"/>
      <point x="-488" y="1490" type="qcurve"/>
      <point x="-488" y="1556"/>
      <point x="-400" y="1643"/>
      <point x="-334" y="1643" type="qcurve"/>
      <point x="-268" y="1643"/>
      <point x="-181" y="1555"/>
      <point x="-181" y="1490" type="qcurve"/>
      <point x="-181" y="1424"/>
      <point x="-268" y="1333"/>
      <point x="-334" y="1333" type="qcurve"/>
    </contour>
    <contour>
      <point x="-398" y="1552"/>
      <point x="-398" y="1486" type="qcurve"/>
      <point x="-398" y="1421"/>
      <point x="-336" y="1421" type="qcurve"/>
      <point x="-272" y="1421"/>
      <point x="-272" y="1486" type="qcurve"/>
      <point x="-272" y="1552"/>
      <point x="-336" y="1552" type="qcurve"/>
    </contour>
    <contour>
      <point x="-961" y="1333"/>
      <point x="-1048" y="1424"/>
      <point x="-1048" y="1490" type="qcurve"/>
      <point x="-1048" y="1555"/>
      <point x="-960" y="1643"/>
      <point x="-895" y="1643" type="qcurve"/>
      <point x="-829" y="1643"/>
      <point x="-741" y="1556"/>
      <point x="-741" y="1490" type="qcurve"/>
      <point x="-741" y="1423"/>
      <point x="-829" y="1333"/>
      <point x="-895" y="1333" type="qcurve"/>
    </contour>
    <contour>
      <point x="-960" y="1552"/>
      <point x="-960" y="1486" type="qcurve"/>
      <point x="-960" y="1421"/>
      <point x="-898" y="1421" type="qcurve"/>
      <point x="-833" y="1421"/>
      <point x="-833" y="1486" type="qcurve"/>
      <point x="-833" y="1552"/>
      <point x="-898" y="1552" type="qcurve"/>
    </contour>
    <contour>
      <point x="-1027" y="1114" type="line"/>
      <point x="-169" y="1114" type="line"/>
      <point x="-169" y="1221" type="line"/>
      <point x="-1027" y="1221" type="line"/>
    </contour>
  </outline>
</glyph>
<glyph name="vowelsignocomb-GurungKhema" format="2">
  <advance width="0"/>
  <unicode hex="16126"/>
  <outline>
    <contour>
      <point x="-684" y="1513"/>
      <point x="-771" y="1604"/>
      <point x="-771" y="1670" type="qcurve"/>
      <point x="-771" y="1735"/>
      <point x="-684" y="1823"/>
      <point x="-619" y="1823" type="qcurve"/>
      <point x="-553" y="1823"/>
      <point x="-465" y="1735"/>
      <point x="-465" y="1670" type="qcurve"/>
      <point x="-465" y="1604"/>
      <point x="-553" y="1513"/>
      <point x="-619" y="1513" type="qcurve"/>
    </contour>
    <contour>
      <point x="-683" y="1732"/>
      <point x="-683" y="1667" type="qcurve"/>
      <point x="-683" y="1601"/>
      <point x="-622" y="1601" type="qcurve"/>
      <point x="-557" y="1601"/>
      <point x="-557" y="1667" type="qcurve"/>
      <point x="-557" y="1732"/>
      <point x="-622" y="1732" type="qcurve"/>
    </contour>
    <contour>
      <point x="-1027" y="1321" type="line"/>
      <point x="-169" y="1321" type="line"/>
      <point x="-169" y="1437" type="line"/>
      <point x="-1027" y="1437" type="line"/>
    </contour>
    <contour>
      <point x="-1027" y="1125" type="line"/>
      <point x="-169" y="1125" type="line"/>
      <point x="-169" y="1230" type="line"/>
      <point x="-1027" y="1230" type="line"/>
    </contour>
  </outline>
</glyph>
<glyph name="vowelsignaucomb-GurungKhema" format="2">
  <advance width="0"/>
  <unicode hex="16128"/>
  <outline>
    <contour>
      <point x="-380" y="1502"/>
      <point x="-468" y="1592"/>
      <point x="-468" y="1659" type="qcurve"/>
      <point x="-468" y="1725"/>
      <point x="-380" y="1812"/>
      <point x="-314" y="1812" type="qcurve"/>
      <point x="-248" y="1812"/>
      <point x="-161" y="1724"/>
      <point x="-161" y="1659" type="qcurve"/>
      <point x="-161" y="1593"/>
      <point x="-248" y="1502"/>
      <point x="-314" y="1502" type="qcurve"/>
    </contour>
    <contour>
      <point x="-378" y="1721"/>
      <point x="-378" y="1656" type="qcurve"/>
      <point x="-378" y="1590"/>
      <point x="-316" y="1590" type="qcurve"/>
      <point x="-252" y="1590"/>
      <point x="-252" y="1656" type="qcurve"/>
      <point x="-252" y="1721"/>
      <point x="-316" y="1721" type="qcurve"/>
    </contour>
    <contour>
      <point x="-941" y="1502"/>
      <point x="-1028" y="1593"/>
      <point x="-1028" y="1659" type="qcurve"/>
      <point x="-1028" y="1724"/>
      <point x="-940" y="1812"/>
      <point x="-875" y="1812" type="qcurve"/>
      <point x="-809" y="1812"/>
      <point x="-721" y="1725"/>
      <point x="-721" y="1659" type="qcurve"/>
      <point x="-721" y="1592"/>
      <point x="-809" y="1502"/>
      <point x="-875" y="1502" type="qcurve"/>
    </contour>
    <contour>
      <point x="-940" y="1721"/>
      <point x="-940" y="1656" type="qcurve"/>
      <point x="-940" y="1590"/>
      <point x="-878" y="1590" type="qcurve"/>
      <point x="-813" y="1590"/>
      <point x="-813" y="1656" type="qcurve"/>
      <point x="-813" y="1721"/>
      <point x="-878" y="1721" type="qcurve"/>
    </contour>
    <contour>
      <point x="-1027" y="1331" type="line"/>
      <point x="-169" y="1331" type="line"/>
      <point x="-169" y="1437" type="line"/>
      <point x="-1027" y="1437" type="line"/>
    </contour>
    <contour>
      <point x="-1027" y="1124" type="line"/>
      <point x="-169" y="1124" type="line"/>
      <point x="-169" y="1229" type="line"/>
      <point x="-1027" y="1229" type="line"/>
    </contour>
  </outline>
</glyph>
<glyph name="vowellengthmarkcomb-GurungKhema" format="2">
  <advance width="0"/>
  <unicode hex="16129"/>
  <outline>
    <contour>
      <point x="-169" y="1723" type="line"/>
      <point x="-169" y="1321" type="line"/>
      <point x="-1027" y="1321" type="line"/>
      <point x="-1027" y="1437" type="line"/>
      <point x="-285" y="1437" type="line"/>
      <point x="-285" y="1723" type="line"/>
    </contour>
  </outline>
</glyph>
<glyph name="consonantsignmedialya-GurungKhema" format="2">
  <advance width="375"/>
  <unicode hex="1612A"/>
  <outline>
    <contour>
      <point x="375" y="1026" type="line"/>
      <point x="375" y="920" type="line"/>
      <point x="242" y="920" type="line"/>
      <point x="242" y="113" type="line"/>
      <point x="541" y="39" type="line"/>
      <point x="820" y="-30"/>
      <point x="965" y="-84" type="qcurve"/>
      <point x="1145" y="-151"/>
      <point x="1278" y="-260" type="qcurve"/>
      <point x="1222" y="-312"/>
      <point x="1169" y="-313" type="qcurve"/>
      <point x="1137" y="-314"/>
      <point x="1102" y="-291" type="qcurve"/>
      <point x="1018" y="-236"/>
      <point x="917" y="-190" type="qcurve"/>
      <point x="778" y="-126"/>
      <point x="129" y="18" type="qcurve"/>
      <point x="129" y="920" type="line"/>
      <point x="0" y="920" type="line"/>
      <point x="0" y="1020" type="line"/>
      <point x="4" y="1026" type="line"/>
    </contour>
  </outline>
</glyph>
<glyph name="consonantsignmedialva-GurungKhema" format="2">
  <advance width="373"/>
  <unicode hex="1612B"/>
  <outline>
    <contour>
      <point x="373" y="1026" type="line"/>
      <point x="373" y="922" type="line"/>
      <point x="240" y="920" type="line"/>
      <point x="240" y="156" type="line"/>
      <point x="539" y="82" type="line"/>
      <point x="838" y="8"/>
      <point x="963" y="-41" type="qcurve"/>
      <point x="1083" y="-88" type="line"/>
      <point x="1239" y="-176"/>
      <point x="1239" y="-268" type="qcurve"/>
      <point x="1239" y="-339"/>
      <point x="1176" y="-379" type="qcurve"/>
      <point x="1121" y="-414"/>
      <point x="1047" y="-410" type="qcurve"/>
      <point x="952" y="-404"/>
      <point x="782" y="-328" type="qcurve"/>
      <point x="823" y="-258"/>
      <point x="887" y="-258" type="qcurve"/>
      <point x="916" y="-258"/>
      <point x="948" y="-272" type="qcurve"/>
      <point x="1004" y="-297"/>
      <point x="1038" y="-297" type="qcurve"/>
      <point x="1094" y="-297"/>
      <point x="1094" y="-252" type="qcurve"/>
      <point x="1094" y="-228"/>
      <point x="1051" y="-207" type="qcurve"/>
      <point x="986" y="-175"/>
      <point x="915" y="-147" type="qcurve"/>
      <point x="799" y="-86"/>
      <point x="127" y="61" type="qcurve"/>
      <point x="127" y="922" type="line"/>
      <point x="-2" y="920" type="line"/>
      <point x="-2" y="1020" type="line"/>
      <point x="2" y="1026" type="line"/>
    </contour>
  </outline>
</glyph>
<glyph name="consonantsignmedialha-GurungKhema" format="2">
  <advance width="543"/>
  <unicode hex="1612C"/>
  <outline>
    <contour>
      <point x="464" y="553"/>
      <point x="346" y="435"/>
      <point x="259" y="435" type="qcurve"/>
      <point x="175" y="435"/>
      <point x="57" y="555"/>
      <point x="57" y="640" type="qcurve"/>
      <point x="57" y="724"/>
      <point x="175" y="841"/>
      <point x="259" y="841" type="qcurve"/>
      <point x="346" y="841"/>
      <point x="464" y="726"/>
      <point x="464" y="640" type="qcurve"/>
    </contour>
    <contour>
      <point x="176" y="605"/>
      <point x="221" y="557"/>
      <point x="255" y="557" type="qcurve"/>
      <point x="290" y="557"/>
      <point x="337" y="605"/>
      <point x="337" y="640" type="qcurve"/>
      <point x="337" y="672"/>
      <point x="288" y="723"/>
      <point x="255" y="723" type="qcurve"/>
      <point x="221" y="723"/>
      <point x="176" y="675"/>
      <point x="176" y="640" type="qcurve"/>
    </contour>
    <contour>
      <point x="464" y="42"/>
      <point x="346" y="-76"/>
      <point x="259" y="-76" type="qcurve"/>
      <point x="175" y="-76"/>
      <point x="57" y="44"/>
      <point x="57" y="129" type="qcurve"/>
      <point x="57" y="213"/>
      <point x="175" y="330"/>
      <point x="259" y="330" type="qcurve"/>
      <point x="346" y="330"/>
      <point x="464" y="215"/>
      <point x="464" y="129" type="qcurve"/>
    </contour>
    <contour>
      <point x="176" y="94"/>
      <point x="221" y="46"/>
      <point x="255" y="46" type="qcurve"/>
      <point x="290" y="46"/>
      <point x="337" y="94"/>
      <point x="337" y="129" type="qcurve"/>
      <point x="337" y="161"/>
      <point x="288" y="212"/>
      <point x="255" y="212" type="qcurve"/>
      <point x="221" y="212"/>
      <point x="176" y="164"/>
      <point x="176" y="129" type="qcurve"/>
    </contour>
    <contour>
      <point x="543" y="1026" type="line"/>
      <point x="543" y="923" type="line"/>
      <point x="1" y="923" type="line"/>
      <point x="0" y="1026" type="line"/>
    </contour>
  </outline>
</glyph>
<glyph name="signanusvaracomb-GurungKhema" format="2">
  <advance width="0"/>
  <unicode hex="1612D"/>
  <outline>
    <contour>
      <point x="-577" y="1060" type="line"/>
      <point x="-807" y="1398" type="line"/>
      <point x="-683" y="1398" type="line"/>
      <point x="-571" y="1249" type="line"/>
      <point x="-462" y="1398" type="line"/>
      <point x="-350" y="1398" type="line"/>
    </contour>
  </outline>
</glyph>
<glyph name="consonantsignmedialracomb-GurungKhema" format="2">
  <advance width="0"/>
  <unicode hex="1612E"/>
  <outline>
    <contour>
      <point x="-535" y="-20" type="line"/>
      <point x="-786" y="-405" type="line"/>
      <point x="-656" y="-405" type="line"/>
      <point x="-535" y="-203" type="line"/>
      <point x="-427" y="-405" type="line"/>
      <point x="-288" y="-405" type="line"/>
    </contour>
  </outline>
</glyph>
<glyph name="signtholhomacomb-GurungKhema" format="2">
  <advance width="0"/>
  <unicode hex="1612F"/>
  <outline>
    <contour>
      <point x="-500" y="18" type="line"/>
      <point x="-613" y="-73" type="line"/>
      <point x="-381" y="-394" type="line"/>
      <point x="-268" y="-307" type="line"/>
    </contour>
  </outline>
</glyph>
<glyph name="zero-GurungKhema" format="2">
  <advance width="1026"/>
  <unicode hex="16130"/>
  <outline>
    <contour>
      <point x="90" y="655"/>
      <point x="129" y="754" type="qcurve"/>
      <point x="152" y="812"/>
      <point x="205" y="877" type="qcurve"/>
      <point x="326" y="1024"/>
      <point x="502" y="1024" type="qcurve"/>
      <point x="665" y="1024"/>
      <point x="774" y="905" type="qcurve"/>
      <point x="873" y="797"/>
      <point x="899" y="629" type="qcurve"/>
      <point x="913" y="540"/>
      <point x="913" y="508" type="qcurve"/>
      <point x="913" y="407"/>
      <point x="885" y="309" type="qcurve"/>
      <point x="826" y="103"/>
      <point x="659" y="29" type="qcurve"/>
      <point x="587" y="-3"/>
      <point x="514" y="-2" type="qcurve"/>
      <point x="387" y="-1"/>
      <point x="283" y="79" type="qcurve"/>
      <point x="185" y="154"/>
      <point x="135" y="276" type="qcurve"/>
      <point x="90" y="386"/>
      <point x="90" y="508" type="qcurve"/>
    </contour>
    <contour>
      <point x="205" y="363"/>
      <point x="281" y="250" type="qcurve"/>
      <point x="367" y="123"/>
      <point x="510" y="117" type="qcurve"/>
      <point x="656" y="111"/>
      <point x="733" y="244" type="qcurve"/>
      <point x="795" y="351"/>
      <point x="795" y="508" type="qcurve"/>
      <point x="795" y="661"/>
      <point x="729" y="770" type="qcurve"/>
      <point x="649" y="901"/>
      <point x="506" y="903" type="qcurve"/>
      <point x="356" y="905"/>
      <point x="268" y="764" type="qcurve"/>
      <point x="205" y="663"/>
      <point x="205" y="512" type="qcurve"/>
    </contour>
  </outline>
</glyph>
<glyph name="one-GurungKhema" format="2">
  <advance width="512"/>
  <unicode hex="16131"/>
  <outline>
    <contour>
      <point x="358" y="1024" type="line"/>
      <point x="256" y="899"/>
      <point x="240" y="799" type="qcurve"/>
      <point x="236" y="774"/>
      <point x="236" y="743" type="qcurve"/>
      <point x="236" y="672"/>
      <point x="281" y="602" type="qcurve"/>
      <point x="331" y="527"/>
      <point x="382" y="451" type="qcurve"/>
      <point x="419" y="381"/>
      <point x="424" y="268" type="qcurve"/>
      <point x="426" y="213"/>
      <point x="395" y="102" type="qcurve"/>
      <point x="379" y="70"/>
      <point x="348" y="-2" type="qcurve"/>
      <point x="199" y="-2" type="line"/>
      <point x="292" y="174"/>
      <point x="295" y="279" type="qcurve"/>
      <point x="298" y="372"/>
      <point x="227" y="473" type="qcurve"/>
      <point x="196" y="517"/>
      <point x="147" y="602" type="qcurve"/>
      <point x="113" y="686"/>
      <point x="113" y="760" type="qcurve"/>
      <point x="113" y="883"/>
      <point x="207" y="1024" type="qcurve"/>
    </contour>
    <contour>
      <point x="203" y="1280"/>
      <point x="285" y="1280" type="qcurve"/>
      <point x="369" y="1280"/>
      <point x="369" y="1200" type="qcurve"/>
      <point x="369" y="1120"/>
      <point x="285" y="1120" type="qcurve"/>
      <point x="203" y="1120"/>
      <point x="203" y="1200" type="qcurve"/>
    </contour>
  </outline>
</glyph>
<glyph name="two-GurungKhema" format="2">
  <advance width="819"/>
  <unicode hex="16132"/>
  <outline>
    <contour>
      <point x="583" y="1000"/>
      <point x="539" y="1014" type="qcurve"/>
      <point x="509" y="1024"/>
      <point x="436" y="1024" type="qcurve"/>
      <point x="358" y="1024"/>
      <point x="262" y="965" type="qcurve"/>
      <point x="251" y="952"/>
      <point x="195" y="887" type="qcurve"/>
      <point x="182" y="858"/>
      <point x="147" y="788" type="qcurve"/>
      <point x="113" y="739"/>
      <point x="104" y="590" type="qcurve"/>
      <point x="102" y="556"/>
      <point x="102" y="541" type="qcurve"/>
      <point x="101" y="534"/>
      <point x="102" y="489" type="qcurve"/>
      <point x="107" y="340"/>
      <point x="168" y="215" type="qcurve"/>
      <point x="213" y="123"/>
      <point x="313" y="43" type="qcurve"/>
      <point x="379" y="9" type="line"/>
      <point x="406" y="-2"/>
      <point x="459" y="-2" type="qcurve"/>
      <point x="545" y="-2"/>
      <point x="626" y="63" type="qcurve"/>
      <point x="711" y="131"/>
      <point x="711" y="215" type="qcurve"/>
      <point x="711" y="264"/>
      <point x="635" y="287" type="qcurve"/>
      <point x="563" y="120"/>
      <point x="469" y="123" type="qcurve"/>
      <point x="347" y="126"/>
      <point x="283" y="260" type="qcurve"/>
      <point x="233" y="364"/>
      <point x="231" y="502" type="qcurve"/>
      <point x="224" y="905"/>
      <point x="451" y="905" type="qcurve"/>
      <point x="582" y="905"/>
      <point x="637" y="737" type="qcurve"/>
      <point x="711" y="752"/>
      <point x="711" y="801" type="qcurve"/>
      <point x="711" y="863"/>
      <point x="635" y="944" type="qcurve"/>
    </contour>
  </outline>
</glyph>
<glyph name="three-GurungKhema" format="2">
  <advance width="819"/>
  <unicode hex="16133"/>
  <outline>
    <contour>
      <point x="230" y="1000"/>
      <point x="274" y="1014" type="qcurve"/>
      <point x="304" y="1024"/>
      <point x="377" y="1024" type="qcurve"/>
      <point x="455" y="1024"/>
      <point x="551" y="965" type="qcurve"/>
      <point x="562" y="952"/>
      <point x="618" y="887" type="qcurve"/>
      <point x="631" y="858"/>
      <point x="666" y="788" type="qcurve"/>
      <point x="700" y="739"/>
      <point x="709" y="590" type="qcurve"/>
      <point x="711" y="556"/>
      <point x="711" y="541" type="qcurve"/>
      <point x="712" y="534"/>
      <point x="711" y="489" type="qcurve"/>
      <point x="710" y="469"/>
      <point x="709" y="410" type="qcurve"/>
      <point x="671" y="180"/>
      <point x="500" y="43" type="qcurve"/>
      <point x="434" y="9" type="line"/>
      <point x="407" y="-2"/>
      <point x="354" y="-2" type="qcurve"/>
      <point x="268" y="-2"/>
      <point x="187" y="63" type="qcurve"/>
      <point x="102" y="131"/>
      <point x="102" y="215" type="qcurve"/>
      <point x="102" y="264"/>
      <point x="178" y="287" type="qcurve"/>
      <point x="250" y="120"/>
      <point x="344" y="123" type="qcurve"/>
      <point x="465" y="126"/>
      <point x="530" y="260" type="qcurve"/>
      <point x="580" y="363"/>
      <point x="582" y="502" type="qcurve"/>
      <point x="588" y="905"/>
      <point x="362" y="905" type="qcurve"/>
      <point x="231" y="905"/>
      <point x="176" y="737" type="qcurve"/>
      <point x="102" y="752"/>
      <point x="102" y="801" type="qcurve"/>
      <point x="102" y="863"/>
      <point x="178" y="944" type="qcurve"/>
    </contour>
  </outline>
</glyph>
<glyph name="four-GurungKhema" format="2">
  <advance width="920"/>
  <unicode hex="16134"/>
  <outline>
    <contour>
      <point x="100" y="322" type="line"/>
      <point x="100" y="242"/>
      <point x="137" y="176" type="qcurve"/>
      <point x="234" y="2"/>
      <point x="463" y="0" type="qcurve"/>
      <point x="650" y="-2"/>
      <point x="733" y="100" type="qcurve"/>
      <point x="784" y="162"/>
      <point x="799" y="201" type="qcurve"/>
      <point x="817" y="246"/>
      <point x="817" y="322" type="qcurve"/>
      <point x="817" y="1024" type="line"/>
      <point x="713" y="1024" type="line"/>
      <point x="713" y="324" type="line"/>
      <point x="713" y="267"/>
      <point x="694" y="233" type="qcurve"/>
      <point x="624" y="109"/>
      <point x="457" y="109" type="qcurve"/>
      <point x="236" y="109"/>
      <point x="207" y="322" type="qcurve"/>
      <point x="207" y="1024" type="line"/>
      <point x="100" y="1024" type="line"/>
    </contour>
  </outline>
</glyph>
<glyph name="five-GurungKhema" format="2">
  <advance width="920"/>
  <unicode hex="16135"/>
  <outline>
    <contour>
      <point x="100" y="702" type="line"/>
      <point x="100" y="782"/>
      <point x="137" y="848" type="qcurve"/>
      <point x="234" y="1022"/>
      <point x="463" y="1024" type="qcurve"/>
      <point x="650" y="1026"/>
      <point x="733" y="924" type="qcurve"/>
      <point x="784" y="862"/>
      <point x="799" y="823" type="qcurve"/>
      <point x="817" y="778"/>
      <point x="817" y="702" type="qcurve"/>
      <point x="817" y="0" type="line"/>
      <point x="713" y="0" type="line"/>
      <point x="713" y="700" type="line"/>
      <point x="713" y="757"/>
      <point x="694" y="791" type="qcurve"/>
      <point x="624" y="915"/>
      <point x="457" y="915" type="qcurve"/>
      <point x="236" y="915"/>
      <point x="207" y="702" type="qcurve"/>
      <point x="207" y="0" type="line"/>
      <point x="100" y="0" type="line"/>
    </contour>
  </outline>
</glyph>
<glyph name="six-GurungKhema" format="2">
  <advance width="819"/>
  <unicode hex="16136"/>
  <outline>
    <contour>
      <point x="772" y="870"/>
      <point x="772" y="899" type="qcurve"/>
      <point x="772" y="923"/>
      <point x="737" y="948" type="qcurve"/>
      <point x="632" y="1024"/>
      <point x="467" y="1024" type="qcurve"/>
      <point x="277" y="1024"/>
      <point x="182" y="885" type="qcurve"/>
      <point x="145" y="831"/>
      <point x="145" y="768" type="qcurve"/>
      <point x="145" y="615"/>
      <point x="299" y="530" type="qcurve"/>
      <point x="337" y="509"/>
      <point x="498" y="463" type="qcurve"/>
      <point x="557" y="446"/>
      <point x="603" y="395" type="qcurve"/>
      <point x="653" y="341"/>
      <point x="653" y="283" type="qcurve"/>
      <point x="653" y="262"/>
      <point x="645" y="238" type="qcurve"/>
      <point x="621" y="166"/>
      <point x="565" y="145" type="qcurve"/>
      <point x="527" y="131"/>
      <point x="438" y="131" type="qcurve"/>
      <point x="344" y="131"/>
      <point x="186" y="223" type="qcurve"/>
      <point x="158" y="190"/>
      <point x="158" y="160" type="qcurve"/>
      <point x="158" y="94"/>
      <point x="289" y="41" type="qcurve"/>
      <point x="400" y="-4"/>
      <point x="481" y="-4" type="qcurve"/>
      <point x="566" y="-4"/>
      <point x="641" y="37" type="qcurve"/>
      <point x="723" y="81"/>
      <point x="754" y="154" type="qcurve"/>
      <point x="776" y="205"/>
      <point x="776" y="264" type="qcurve"/>
      <point x="776" y="440"/>
      <point x="598" y="539" type="qcurve"/>
      <point x="539" y="572"/>
      <point x="387" y="627" type="qcurve"/>
      <point x="281" y="665"/>
      <point x="281" y="774" type="qcurve"/>
      <point x="281" y="842"/>
      <point x="350" y="879" type="qcurve"/>
      <point x="406" y="909"/>
      <point x="479" y="907" type="qcurve"/>
      <point x="555" y="905"/>
      <point x="723" y="844" type="qcurve"/>
    </contour>
  </outline>
</glyph>
<glyph name="seven-GurungKhema" format="2">
  <advance width="917"/>
  <unicode hex="16137"/>
  <outline>
    <contour>
      <point x="373" y="965"/>
      <point x="428" y="1022"/>
      <point x="465" y="1022" type="qcurve"/>
      <point x="551" y="1022"/>
      <point x="551" y="928" type="qcurve"/>
      <point x="551" y="888"/>
      <point x="501" y="834"/>
      <point x="461" y="834" type="qcurve"/>
      <point x="423" y="834"/>
      <point x="373" y="890"/>
      <point x="373" y="928" type="qcurve"/>
    </contour>
    <contour>
      <point x="100" y="322" type="line"/>
      <point x="100" y="242"/>
      <point x="137" y="176" type="qcurve"/>
      <point x="234" y="2"/>
      <point x="463" y="0" type="qcurve"/>
      <point x="650" y="-2"/>
      <point x="733" y="100" type="qcurve"/>
      <point x="784" y="162"/>
      <point x="799" y="201" type="qcurve"/>
      <point x="817" y="246"/>
      <point x="817" y="322" type="qcurve"/>
      <point x="817" y="1024" type="line"/>
      <point x="713" y="1024" type="line"/>
      <point x="713" y="324" type="line"/>
      <point x="713" y="267"/>
      <point x="694" y="233" type="qcurve"/>
      <point x="624" y="109"/>
      <point x="457" y="109" type="qcurve"/>
      <point x="236" y="109"/>
      <point x="207" y="322" type="qcurve"/>
      <point x="207" y="1024" type="line"/>
      <point x="100" y="1024" type="line"/>
    </contour>
  </outline>
</glyph>
<glyph name="eight-GurungKhema" format="2">
  <advance width="922"/>
  <unicode hex="16138"/>
  <outline>
    <contour>
      <point x="555" y="63"/>
      <point x="502" y="8"/>
      <point x="463" y="8" type="qcurve"/>
      <point x="377" y="8"/>
      <point x="377" y="102" type="qcurve"/>
      <point x="377" y="141"/>
      <point x="427" y="197"/>
      <point x="465" y="197" type="qcurve"/>
      <point x="505" y="197"/>
      <point x="555" y="142"/>
      <point x="555" y="102" type="qcurve"/>
    </contour>
    <contour>
      <point x="100" y="702" type="line"/>
      <point x="100" y="782"/>
      <point x="137" y="848" type="qcurve"/>
      <point x="234" y="1022"/>
      <point x="463" y="1024" type="qcurve"/>
      <point x="650" y="1026"/>
      <point x="733" y="924" type="qcurve"/>
      <point x="784" y="862"/>
      <point x="799" y="823" type="qcurve"/>
      <point x="817" y="778"/>
      <point x="817" y="702" type="qcurve"/>
      <point x="817" y="0" type="line"/>
      <point x="713" y="0" type="line"/>
      <point x="713" y="700" type="line"/>
      <point x="713" y="757"/>
      <point x="694" y="791" type="qcurve"/>
      <point x="624" y="915"/>
      <point x="457" y="915" type="qcurve"/>
      <point x="236" y="915"/>
      <point x="207" y="702" type="qcurve"/>
      <point x="207" y="0" type="line"/>
      <point x="100" y="0" type="line"/>
    </contour>
  </outline>
</glyph>
<glyph name="nine-GurungKhema" format="2">
  <advance width="1292"/>
  <unicode hex="16139"/>
  <outline>
    <contour>
      <point x="125" y="270" type="line"/>
      <point x="147" y="63"/>
      <point x="240" y="25" type="qcurve"/>
      <point x="301" y="0"/>
      <point x="362" y="0" type="qcurve"/>
      <point x="506" y="0"/>
      <point x="567" y="150" type="qcurve"/>
      <point x="602" y="65"/>
      <point x="686" y="12" type="qcurve"/>
      <point x="711" y="-4"/>
      <point x="780" y="-4" type="qcurve"/>
      <point x="893" y="-4"/>
      <point x="952" y="75" type="qcurve"/>
      <point x="1006" y="146"/>
      <point x="1006" y="262" type="qcurve"/>
      <point x="1006" y="643" type="line"/>
      <point x="1020" y="777"/>
      <point x="1026" y="797" type="qcurve"/>
      <point x="1030" y="809"/>
      <point x="1053" y="842" type="qcurve"/>
      <point x="1114" y="928"/>
      <point x="1223" y="956" type="qcurve"/>
      <point x="1157" y="1014"/>
      <point x="1102" y="1014" type="qcurve"/>
      <point x="1061" y="1014"/>
      <point x="1008" y="971" type="qcurve"/>
      <point x="963" y="935"/>
      <point x="936" y="893" type="qcurve"/>
      <point x="895" y="829"/>
      <point x="895" y="639" type="qcurve"/>
      <point x="895" y="270" type="line"/>
      <point x="895" y="148"/>
      <point x="811" y="119" type="qcurve"/>
      <point x="794" y="113"/>
      <point x="758" y="117" type="qcurve"/>
      <point x="721" y="121"/>
      <point x="711" y="127" type="qcurve"/>
      <point x="660" y="157"/>
      <point x="645" y="199" type="qcurve"/>
      <point x="641" y="210"/>
      <point x="627" y="299" type="qcurve"/>
      <point x="627" y="590" type="line"/>
      <point x="504" y="590" type="line"/>
      <point x="506" y="283" type="line"/>
      <point x="497" y="220"/>
      <point x="467" y="168" type="qcurve"/>
      <point x="428" y="100"/>
      <point x="375" y="100" type="qcurve"/>
      <point x="355" y="100"/>
      <point x="330" y="113" type="qcurve"/>
      <point x="238" y="161"/>
      <point x="238" y="272" type="qcurve"/>
      <point x="240" y="1022" type="line"/>
      <point x="125" y="1022" type="line"/>
    </contour>
  </outline>
</glyph>
<glyph name=".notdef" format="2">
  <advance width="1108"/>
  <outline>
    <contour>
      <point x="248" y="0" type="line"/>
      <point x="248" y="1365" type="line"/>
      <point x="792" y="1365" type="line"/>
      <point x="792" y="0" type="line"/>
    </contour>
    <contour>
      <point x="316" y="68" type="line"/>
      <point x="724" y="68" type="line"/>
      <point x="724" y="1297" type="line"/>
      <point x="316" y="1297" type="line"/>
    </contour>
  </outline>
</glyph>
